<mxfile host="65bd71144e">
    <diagram id="amqrW1gJ4K7w5JCBkm9t" name="Page-1">
        <mxGraphModel dx="720" dy="518" grid="1" gridSize="10" guides="1" tooltips="1" connect="1" arrows="1" fold="1" page="1" pageScale="1" pageWidth="827" pageHeight="1169" math="0" shadow="0">
            <root>
                <mxCell id="0"/>
                <mxCell id="1" parent="0"/>
                <mxCell id="3" value="" style="rounded=0;whiteSpace=wrap;html=1;" vertex="1" parent="1">
                    <mxGeometry x="280" width="440" height="400" as="geometry"/>
                </mxCell>
                <mxCell id="Ei8CF15KurNhttZyVuuA-53" style="edgeStyle=orthogonalEdgeStyle;rounded=0;orthogonalLoop=1;jettySize=auto;html=1;exitX=0.5;exitY=1;exitDx=0;exitDy=0;entryX=0.5;entryY=0;entryDx=0;entryDy=0;" parent="1" source="QJUcf3hQXVjyApLe9Yys-1" target="Ei8CF15KurNhttZyVuuA-45" edge="1">
                    <mxGeometry relative="1" as="geometry"/>
                </mxCell>
                <mxCell id="QJUcf3hQXVjyApLe9Yys-1" value="JPass Dashboard&lt;br&gt;(idle) 0" style="html=1;fillColor=#dae8fc;strokeColor=#6c8ebf;" parent="1" vertex="1">
                    <mxGeometry x="440" y="10" width="120" height="40" as="geometry"/>
                </mxCell>
                <mxCell id="2" style="edgeStyle=none;html=1;exitX=0.5;exitY=1;exitDx=0;exitDy=0;entryX=0.5;entryY=0;entryDx=0;entryDy=0;" edge="1" parent="1" source="Ei8CF15KurNhttZyVuuA-45" target="Ei8CF15KurNhttZyVuuA-46">
                    <mxGeometry relative="1" as="geometry"/>
                </mxCell>
                <mxCell id="Ei8CF15KurNhttZyVuuA-45" value="JPass Dashboard&lt;br&gt;(idle) 1" style="html=1;fillColor=#dae8fc;strokeColor=#6c8ebf;" parent="1" vertex="1">
                    <mxGeometry x="440" y="80" width="120" height="40" as="geometry"/>
                </mxCell>
                <mxCell id="Ei8CF15KurNhttZyVuuA-56" style="edgeStyle=orthogonalEdgeStyle;rounded=0;orthogonalLoop=1;jettySize=auto;html=1;exitX=0.5;exitY=1;exitDx=0;exitDy=0;entryX=0.5;entryY=0;entryDx=0;entryDy=0;" parent="1" source="Ei8CF15KurNhttZyVuuA-46" target="Ei8CF15KurNhttZyVuuA-47" edge="1">
                    <mxGeometry relative="1" as="geometry"/>
                </mxCell>
                <mxCell id="Ei8CF15KurNhttZyVuuA-57" style="edgeStyle=orthogonalEdgeStyle;rounded=0;orthogonalLoop=1;jettySize=auto;html=1;exitX=0.5;exitY=1;exitDx=0;exitDy=0;entryX=0.5;entryY=0;entryDx=0;entryDy=0;" parent="1" source="Ei8CF15KurNhttZyVuuA-46" target="Ei8CF15KurNhttZyVuuA-49" edge="1">
                    <mxGeometry relative="1" as="geometry"/>
                </mxCell>
                <mxCell id="Ei8CF15KurNhttZyVuuA-58" style="edgeStyle=orthogonalEdgeStyle;rounded=0;orthogonalLoop=1;jettySize=auto;html=1;exitX=0.5;exitY=1;exitDx=0;exitDy=0;entryX=0.5;entryY=0;entryDx=0;entryDy=0;" parent="1" source="Ei8CF15KurNhttZyVuuA-46" target="Ei8CF15KurNhttZyVuuA-50" edge="1">
                    <mxGeometry relative="1" as="geometry"/>
                </mxCell>
                <mxCell id="Ei8CF15KurNhttZyVuuA-46" value="Enter Password 0" style="html=1;fillColor=#dae8fc;strokeColor=#6c8ebf;" parent="1" vertex="1">
                    <mxGeometry x="440" y="160" width="120" height="40" as="geometry"/>
                </mxCell>
                <mxCell id="Ei8CF15KurNhttZyVuuA-60" style="edgeStyle=orthogonalEdgeStyle;rounded=0;orthogonalLoop=1;jettySize=auto;html=1;exitX=0.5;exitY=1;exitDx=0;exitDy=0;entryX=0.5;entryY=0;entryDx=0;entryDy=0;" parent="1" source="Ei8CF15KurNhttZyVuuA-47" target="Ei8CF15KurNhttZyVuuA-48" edge="1">
                    <mxGeometry relative="1" as="geometry"/>
                </mxCell>
                <mxCell id="Ei8CF15KurNhttZyVuuA-47" value="Enter Password&lt;br&gt;(warning) 0" style="html=1;fillColor=#dae8fc;strokeColor=#6c8ebf;" parent="1" vertex="1">
                    <mxGeometry x="310" y="240" width="120" height="40" as="geometry"/>
                </mxCell>
                <mxCell id="Ei8CF15KurNhttZyVuuA-48" value="Enter Password 1" style="html=1;fillColor=#dae8fc;strokeColor=#6c8ebf;" parent="1" vertex="1">
                    <mxGeometry x="310" y="320" width="120" height="40" as="geometry"/>
                </mxCell>
                <mxCell id="Ei8CF15KurNhttZyVuuA-61" style="edgeStyle=orthogonalEdgeStyle;rounded=0;orthogonalLoop=1;jettySize=auto;html=1;exitX=0.5;exitY=1;exitDx=0;exitDy=0;entryX=0.5;entryY=0;entryDx=0;entryDy=0;" parent="1" source="Ei8CF15KurNhttZyVuuA-49" target="Ei8CF15KurNhttZyVuuA-51" edge="1">
                    <mxGeometry relative="1" as="geometry"/>
                </mxCell>
                <mxCell id="Ei8CF15KurNhttZyVuuA-49" value="Enter Password&lt;br&gt;(information) 0" style="html=1;fillColor=#dae8fc;strokeColor=#6c8ebf;" parent="1" vertex="1">
                    <mxGeometry x="440" y="240" width="120" height="40" as="geometry"/>
                </mxCell>
                <mxCell id="Ei8CF15KurNhttZyVuuA-62" style="edgeStyle=orthogonalEdgeStyle;rounded=0;orthogonalLoop=1;jettySize=auto;html=1;exitX=0.5;exitY=1;exitDx=0;exitDy=0;entryX=0.5;entryY=0;entryDx=0;entryDy=0;" parent="1" source="Ei8CF15KurNhttZyVuuA-50" target="Ei8CF15KurNhttZyVuuA-52" edge="1">
                    <mxGeometry relative="1" as="geometry"/>
                </mxCell>
                <mxCell id="Ei8CF15KurNhttZyVuuA-50" value="Enter Password&lt;br&gt;(information) 1" style="html=1;fillColor=#dae8fc;strokeColor=#6c8ebf;" parent="1" vertex="1">
                    <mxGeometry x="570" y="240" width="120" height="40" as="geometry"/>
                </mxCell>
                <mxCell id="Ei8CF15KurNhttZyVuuA-51" value="JPass Dashboard&lt;br&gt;(idle) 2" style="html=1;fillColor=#dae8fc;strokeColor=#6c8ebf;" parent="1" vertex="1">
                    <mxGeometry x="440" y="320" width="120" height="40" as="geometry"/>
                </mxCell>
                <mxCell id="Ei8CF15KurNhttZyVuuA-52" value="JPass Dashboard&lt;br&gt;(idle) 3" style="html=1;fillColor=#dae8fc;strokeColor=#6c8ebf;" parent="1" vertex="1">
                    <mxGeometry x="570" y="320" width="120" height="40" as="geometry"/>
                </mxCell>
            </root>
        </mxGraphModel>
    </diagram>
</mxfile>